<svg width="103" height="33" viewBox="0 0 103 33" fill="none" xmlns="http://www.w3.org/2000/svg">
<path d="M9.96369 23.4941L12.1802 23.1327V5.59348L9.96369 5.25619V4.72616H17.3118C19.0465 4.72616 20.4278 4.88677 21.4557 5.208C22.4837 5.52923 23.2305 6.01911 23.6963 6.67763C24.1621 7.3201 24.395 8.17136 24.395 9.23142C24.395 11.5443 22.9334 13.0219 20.0102 13.6644V13.7849C21.793 14.0258 23.1743 14.5558 24.1541 15.375C25.1499 16.1941 25.6478 17.3345 25.6478 18.7961C25.6478 20.5628 24.9973 21.8718 23.6963 22.7231C22.4114 23.5744 20.6687 24 18.4683 24H9.96369V23.4941ZM17.5046 13.5921C18.7895 13.5921 19.7773 13.2307 20.4679 12.508C21.1586 11.7852 21.5039 10.7573 21.5039 9.42416V9.2796C21.5039 6.64551 20.1066 5.32846 17.3118 5.32846H14.8303V13.5921H17.5046ZM18.4683 23.4218C19.8335 23.4218 20.8936 23.0283 21.6485 22.2413C22.4034 21.4382 22.7808 20.2978 22.7808 18.8202V18.5551C22.7808 17.0935 22.4034 16.0014 21.6485 15.2786C20.9096 14.5558 19.8496 14.1944 18.4683 14.1944H14.8303V23.4218H18.4683ZM32.7819 24.2409C31.6255 24.2409 30.71 23.9518 30.0354 23.3736C29.3769 22.7954 29.0476 21.9361 29.0476 20.7957V12.243L27.3612 12.002V11.5202H31.4568V20.7475C31.4568 21.5667 31.6255 22.2091 31.9628 22.6749C32.3001 23.1407 32.8221 23.3736 33.5288 23.3736C34.2676 23.3736 34.9743 23.1327 35.6489 22.6508C36.3396 22.1529 36.9499 21.5426 37.4799 20.8198V12.243L35.7935 12.002V11.5202H39.8892V23.2772L41.5756 23.5182V24H37.4799V21.6871C36.9017 22.4902 36.203 23.1166 35.3839 23.5663C34.5808 24.0161 33.7135 24.2409 32.7819 24.2409ZM48.968 24.2409C47.8276 24.2409 46.8238 23.9759 45.9565 23.4459C45.0891 22.8998 44.4146 22.1449 43.9327 21.1812C43.4509 20.2014 43.2099 19.0611 43.2099 17.7601C43.2099 16.4591 43.4509 15.3268 43.9327 14.3631C44.4146 13.3833 45.0891 12.6284 45.9565 12.0984C46.8238 11.5684 47.8276 11.3034 48.968 11.3034C49.8996 11.3034 50.7107 11.5523 51.4013 12.0502C52.092 12.5321 52.6381 13.1986 53.0396 14.0499V5.44893L51.3531 5.208V4.72616H55.4488V23.2772L57.1353 23.5182V24H53.0396V21.4944C52.6381 22.3457 52.092 23.0202 51.4013 23.5182C50.7107 24 49.8996 24.2409 48.968 24.2409ZM49.2089 23.6386C49.9156 23.6386 50.5501 23.4378 51.1122 23.0363C51.6904 22.6187 52.1482 22.0726 52.4855 21.398C52.8388 20.7074 53.0235 19.9605 53.0396 19.1574V16.3868C53.0235 15.5838 52.8388 14.8449 52.4855 14.1703C52.1482 13.4797 51.6904 12.9336 51.1122 12.5321C50.5501 12.1145 49.9156 11.9057 49.2089 11.9057C46.9764 11.9057 45.8601 13.4556 45.8601 16.5555V18.9647C45.8601 22.0806 46.9764 23.6386 49.2089 23.6386ZM65.028 24.2409C63.8394 24.2409 62.7633 23.9759 61.7996 23.4459C60.8359 22.8998 60.073 22.1369 59.5108 21.1571C58.9487 20.1774 58.6676 19.045 58.6676 17.7601C58.6676 16.4752 58.9406 15.3509 59.4867 14.3872C60.0489 13.4074 60.7958 12.6525 61.7273 12.1225C62.675 11.5764 63.727 11.3034 64.8834 11.3034C65.8953 11.3034 66.8028 11.5282 67.6058 11.9779C68.4089 12.4277 69.0353 13.0541 69.485 13.8571C69.9348 14.6442 70.1677 15.5516 70.1837 16.5796H61.3178V18.9647C61.3178 20.3781 61.631 21.5265 62.2574 22.4099C62.8998 23.2772 63.8234 23.7109 65.028 23.7109C66.1362 23.7109 67.116 23.3977 67.9672 22.7713C68.8185 22.1449 69.3405 21.3338 69.5332 20.338H70.0874C69.8625 21.5265 69.2923 22.4742 68.3768 23.1809C67.4613 23.8876 66.345 24.2409 65.028 24.2409ZM67.5336 15.9773C67.5336 14.5799 67.3167 13.5439 66.8831 12.8694C66.4494 12.1787 65.7748 11.8334 64.8593 11.8334C63.7832 11.8334 62.948 12.2108 62.3537 12.9657C61.7594 13.7206 61.4222 14.7245 61.3418 15.9773H67.5336ZM84.1463 10.3878C84.1463 11.0142 83.9134 11.5523 83.4477 12.002C82.9819 12.4518 82.243 12.7409 81.2312 12.8694C81.6488 13.4797 81.8576 14.3149 81.8576 15.375C81.8576 16.6278 81.4078 17.6155 80.5084 18.3383C79.625 19.0611 78.5007 19.4225 77.1355 19.4225C76.5733 19.4225 76.0594 19.3743 75.5936 19.2779C74.5656 19.3422 74.0517 19.7437 74.0517 20.4825C74.0517 20.9001 74.2203 21.2053 74.5576 21.398C74.911 21.5908 75.4651 21.6871 76.22 21.6871H78.9183C80.2193 21.6871 81.183 21.9522 81.8094 22.4822C82.4518 23.0122 82.7731 23.9197 82.7731 25.2046C82.7731 26.1041 82.5402 26.9312 82.0744 27.6861C81.6247 28.441 80.9662 29.0353 80.0988 29.469C79.2315 29.9187 78.1955 30.1435 76.9909 30.1435C75.176 30.1435 73.8348 29.8705 72.9675 29.3244C72.1162 28.7783 71.6906 28.0555 71.6906 27.1561C71.6906 26.61 71.8994 26.1282 72.317 25.7106C72.7346 25.293 73.3048 25.0842 74.0276 25.0842C74.1721 25.0842 74.4693 25.1163 74.919 25.1805C74.4211 25.7106 74.1721 26.337 74.1721 27.0597C74.1721 27.7504 74.413 28.3527 74.8949 28.8666C75.3767 29.3806 76.1638 29.6376 77.2559 29.6376C78.2036 29.6376 79.0468 29.4529 79.7856 29.0835C80.5405 28.7301 81.1187 28.2643 81.5203 27.6861C81.9218 27.1079 82.1226 26.5136 82.1226 25.9033C82.1226 25.2287 81.9058 24.7388 81.4721 24.4337C81.0384 24.1446 80.2675 24 79.1592 24H76.22C75.0957 24 74.2444 23.7832 73.6662 23.3495C73.104 22.8998 72.823 22.2413 72.823 21.3739C72.823 20.7957 72.9836 20.2898 73.3048 19.8561C73.6421 19.4064 74.0677 19.1173 74.5817 18.9888C73.1843 18.3945 72.4857 17.1899 72.4857 15.375C72.4857 14.1061 72.9274 13.1103 73.8107 12.3875C74.6941 11.6647 75.8024 11.3034 77.1355 11.3034C78.8219 11.3034 80.0426 11.6567 80.7975 12.3634C81.2472 12.2831 81.5845 12.1386 81.8094 11.9298C82.0342 11.7049 82.1467 11.4559 82.1467 11.1829C82.1467 10.9259 82.0744 10.7332 81.9298 10.6047C81.7853 10.4601 81.6166 10.3878 81.4239 10.3878C81.4239 10.0345 81.5524 9.72933 81.8094 9.47234C82.0824 9.1993 82.4037 9.06277 82.7731 9.06277C83.1746 9.06277 83.5039 9.18323 83.7609 9.42416C84.0178 9.66508 84.1463 9.98631 84.1463 10.3878ZM79.5929 14.7726C79.5929 13.7929 79.3841 13.038 78.9665 12.508C78.565 11.9779 77.9546 11.7129 77.1355 11.7129C75.5454 11.7129 74.7503 12.7328 74.7503 14.7726V15.9532C74.7503 16.9008 74.9431 17.6477 75.3286 18.1938C75.7301 18.7398 76.3324 19.0129 77.1355 19.0129C77.9546 19.0129 78.565 18.7398 78.9665 18.1938C79.3841 17.6477 79.5929 16.9008 79.5929 15.9532V14.7726ZM88.6554 24.2409C87.6274 24.2409 86.7842 23.9759 86.1257 23.4459C85.4671 22.8998 85.1379 22.0967 85.1379 21.0366C85.1379 19.5269 85.7723 18.4588 87.0412 17.8324C88.31 17.1899 89.7797 16.8687 91.4501 16.8687H93.0643V15.0136C93.0643 14.1784 92.9679 13.5359 92.7751 13.0862C92.5985 12.6204 92.3174 12.2992 91.9319 12.1225C91.5464 11.9298 91.0244 11.8334 90.3659 11.8334C89.611 11.8334 89.0489 11.986 88.6795 12.2911C88.31 12.5802 88.1253 12.9738 88.1253 13.4717C88.1253 13.9374 88.3502 14.2426 88.7999 14.3872C88.7999 14.7887 88.6473 15.1421 88.3422 15.4472C88.037 15.7524 87.6756 15.905 87.258 15.905C86.8083 15.905 86.4469 15.7845 86.1739 15.5436C85.9008 15.2866 85.7643 14.9011 85.7643 14.3872C85.7643 13.4556 86.2301 12.7087 87.1616 12.1466C88.0932 11.5844 89.2577 11.3034 90.655 11.3034C93.8673 11.3034 95.4735 12.7007 95.4735 15.4954V22.3858C95.4735 22.7392 95.5458 23.0122 95.6903 23.205C95.8509 23.3816 96.0758 23.47 96.3649 23.47C96.6379 23.47 96.8548 23.3816 97.0154 23.205C97.176 23.0122 97.2563 22.7552 97.2563 22.434H97.7623C97.7623 22.9962 97.5775 23.4378 97.2081 23.7591C96.8548 24.0803 96.3569 24.2409 95.7144 24.2409C94.9756 24.2409 94.3492 24.0321 93.8352 23.6145C93.3373 23.1809 93.0803 22.5143 93.0643 21.6149C92.6788 22.434 92.0845 23.0765 91.2814 23.5422C90.4944 24.008 89.6191 24.2409 88.6554 24.2409ZM89.9804 23.1809C90.4141 23.1809 90.8558 23.0524 91.3055 22.7954C91.7713 22.5384 92.1648 22.169 92.486 21.6871C92.8073 21.1892 93 20.595 93.0643 19.9043V17.3987H91.4501C90.133 17.3987 89.1452 17.6958 88.4867 18.2901C87.8443 18.8683 87.523 19.6875 87.523 20.7475C87.523 21.6309 87.7318 22.2573 88.1494 22.6267C88.567 22.9962 89.1774 23.1809 89.9804 23.1809Z" fill="white"/>
<path d="M8.05247 21.6646C8.05247 22.0094 7.9925 22.3193 7.87257 22.5941C7.74764 22.864 7.57774 23.0763 7.36286 23.2312C7.14298 23.3862 6.89062 23.4661 6.60578 23.4711L6.60578 22.744C6.85064 22.719 7.05802 22.6191 7.22793 22.4442C7.39284 22.2643 7.47529 22.0044 7.47529 21.6646C7.47529 21.3398 7.39534 21.0849 7.23543 20.9C7.07052 20.7102 6.86063 20.6152 6.60578 20.6152C6.40589 20.6152 6.24348 20.6702 6.11855 20.7801C5.99362 20.8901 5.89867 21.0275 5.83371 21.1924C5.76874 21.3573 5.69878 21.5797 5.62382 21.8595C5.53387 22.2043 5.44392 22.4817 5.35397 22.6915C5.26402 22.8964 5.1241 23.0738 4.93421 23.2238C4.73932 23.3687 4.47946 23.4411 4.15464 23.4411C3.8698 23.4411 3.61744 23.3687 3.39757 23.2238C3.17769 23.0788 3.00778 22.8764 2.88785 22.6166C2.76792 22.3517 2.70795 22.0494 2.70795 21.7096C2.70795 21.2199 2.83038 20.8201 3.07525 20.5103C3.32011 20.1954 3.64493 20.018 4.0497 19.9781L4.0497 20.7276C3.84981 20.7526 3.67491 20.8576 3.52499 21.0425C3.37008 21.2274 3.29262 21.4722 3.29262 21.7771C3.29262 22.0619 3.36758 22.2943 3.5175 22.4742C3.66242 22.6541 3.8673 22.744 4.13216 22.744C4.32205 22.744 4.47696 22.6915 4.5969 22.5866C4.71683 22.4767 4.80928 22.3442 4.87424 22.1893C4.93421 22.0294 5.00417 21.807 5.08413 21.5222C5.17907 21.1774 5.27402 20.9 5.36897 20.6902C5.45892 20.4803 5.60134 20.3004 5.79623 20.1505C5.98612 20.0005 6.24598 19.9256 6.57579 19.9256C6.83065 19.9256 7.07052 19.9931 7.29539 20.128C7.52027 20.2629 7.70267 20.4628 7.84259 20.7276C7.98251 20.9925 8.05247 21.3048 8.05247 21.6646ZM4.45448 18.0898L6.87563 18.0898C7.07552 18.0898 7.21794 18.0473 7.30289 17.9623C7.38284 17.8774 7.42282 17.73 7.42282 17.5201L7.42282 17.0179L8 17.0179L8 17.6325C8 18.0123 7.91255 18.2971 7.73765 18.487C7.56274 18.6769 7.2754 18.7719 6.87563 18.7719L4.45448 18.7719L4.45448 19.3041L3.89229 19.3041L3.89229 18.7719L2.85787 18.7719L2.85787 18.0898L3.89229 18.0898L3.89229 17.0179L4.45448 17.0179L4.45448 18.0898ZM8.06746 14.3999C8.06746 14.7847 7.98001 15.1345 7.80511 15.4493C7.63021 15.7591 7.38284 16.004 7.06302 16.1839C6.7382 16.3588 6.36341 16.4462 5.93865 16.4462C5.51888 16.4462 5.14909 16.3563 4.82927 16.1764C4.50445 15.9915 4.25709 15.7416 4.08718 15.4268C3.91228 15.112 3.82483 14.7597 3.82483 14.3699C3.82483 13.9801 3.91228 13.6278 4.08718 13.313C4.25709 12.9982 4.50195 12.7508 4.82177 12.5709C5.14159 12.386 5.51389 12.2936 5.93865 12.2936C6.36341 12.2936 6.7382 12.3885 7.06302 12.5784C7.38284 12.7633 7.63021 13.0157 7.80511 13.3355C7.98001 13.6553 8.06746 14.0101 8.06746 14.3999ZM7.4678 14.3999C7.4678 14.155 7.41033 13.9251 7.29539 13.7103C7.18046 13.4954 7.00805 13.323 6.77818 13.1931C6.54831 13.0581 6.26846 12.9907 5.93865 12.9907C5.60883 12.9907 5.32899 13.0556 5.09912 13.1856C4.86924 13.3155 4.69934 13.4854 4.5894 13.6953C4.47446 13.9052 4.417 14.1325 4.417 14.3774C4.417 14.6273 4.47446 14.8571 4.5894 15.067C4.69934 15.2719 4.86924 15.4368 5.09912 15.5617C5.32899 15.6867 5.60883 15.7491 5.93865 15.7491C6.27346 15.7491 6.5558 15.6892 6.78568 15.5692C7.01555 15.4443 7.18795 15.2794 7.30289 15.0745C7.41283 14.8696 7.4678 14.6447 7.4678 14.3999ZM4.55942 10.7146C4.32455 10.5946 4.14215 10.4247 4.01222 10.2049C3.88229 9.97998 3.81733 9.70763 3.81733 9.38781L4.52194 9.38781L4.52194 9.56771C4.52194 10.3323 4.93671 10.7146 5.76624 10.7146L8 10.7146L8 11.3967L3.89229 11.3967L3.89229 10.7146L4.55942 10.7146ZM5.78873 4.85249C5.91866 4.85249 6.05608 4.85998 6.201 4.87498L6.201 8.15815C6.60578 8.13316 6.9231 7.99574 7.15297 7.74588C7.37785 7.49102 7.49028 7.18369 7.49028 6.82389C7.49028 6.52905 7.42282 6.28419 7.2879 6.0893C7.14797 5.88941 6.96308 5.74949 6.73321 5.66953L6.73321 4.93494C7.12799 5.04488 7.45031 5.26476 7.70017 5.59457C7.94503 5.92439 8.06746 6.33416 8.06746 6.82389C8.06746 7.21367 7.98001 7.56348 7.80511 7.8733C7.63021 8.17813 7.38284 8.418 7.06302 8.5929C6.7382 8.76781 6.36341 8.85526 5.93865 8.85526C5.51389 8.85526 5.14159 8.7703 4.82177 8.6004C4.50195 8.43049 4.25709 8.19313 4.08718 7.8883C3.91228 7.57847 3.82483 7.22367 3.82483 6.82389C3.82483 6.43411 3.90978 6.0893 4.07968 5.78947C4.24959 5.48963 4.48446 5.25976 4.78429 5.09985C5.07913 4.93494 5.41394 4.85249 5.78873 4.85249ZM5.64631 5.5571C5.38646 5.5571 5.16408 5.61456 4.97918 5.7295C4.78929 5.84444 4.64687 6.00185 4.55192 6.20174C4.45198 6.39663 4.402 6.61401 4.402 6.85387C4.402 7.19868 4.51194 7.49352 4.73182 7.73838C4.9517 7.97825 5.25653 8.11567 5.64631 8.15065L5.64631 5.5571Z" fill="white"/>
</svg>
